<?xml version="1.0" encoding="utf-8"?>
<!-- Generator: Adobe Illustrator 27.0.0, SVG Export Plug-In . SVG Version: 6.00 Build 0)  -->
<svg version="1.1" id="OBJECTS" xmlns="http://www.w3.org/2000/svg" xmlns:xlink="http://www.w3.org/1999/xlink" x="0px" y="0px"
	 viewBox="0 0 160.7 126.2" style="enable-background:new 0 0 160.7 126.2;" xml:space="preserve">
<style type="text/css">
	.st0{fill:#76A046;}
	.st1{fill:#C4952C;}
	.st2{fill:#DFAF35;}
	.st3{fill:#F4F4F4;}
	.st4{opacity:0.2;fill:#C4952C;}
	.st5{fill:none;}
	.st6{fill:#FFFFFF;}
</style>
<g>
	<g>
		<text transform="matrix(0.9567 0 0 1 -736.5895 186.1238)"><tspan x="0" y="0" class="st2" style="font-family:'Baloo2-SemiBold'; font-size:26.4348px;">Online</tspan><tspan x="75.4" y="0" class="st0" style="font-family:'Baloo2-SemiBold'; font-size:26.4348px;">Shop</tspan></text>
		
			<text transform="matrix(0.9567 0 0 1 -701.1505 197.299)" style="fill:#444444; font-family:'Baloo2-Medium'; font-size:10.5271px;">Slogan Here</text>
	</g>
	<g>
		<path class="st0" d="M-650.1,93.4l-0.8-15.8c-0.5-6-5.4-10.6-11.4-10.7l-6.3-0.1c0,0-0.1,0-0.1,0c-6,0-11.1,4.7-11.6,10.7
			l-0.9,15.9c-0.1,0.9,0.6,1.8,1.6,1.9c0,0,0.1,0,0.1,0c0.9,0,1.6-0.7,1.7-1.6l0.9-15.9c0.4-4.2,3.9-7.5,8.2-7.5c0,0,0.1,0,0.1,0
			l6.3,0.1c4.3,0.1,7.7,3.3,8.1,7.5l0.8,15.8c0.1,0.9,0.8,1.6,1.7,1.6c0,0,0.1,0,0.1,0C-650.8,95.2-650,94.4-650.1,93.4z"/>
		<path class="st1" d="M-691.7,89.2l-8.1,55.5c-0.9,6.1,3.8,11.5,10,11.5h46c6.2,0,12.5-3.3,11.5-9.4L-643,89.1
			c-0.3-1.7-1.8-3-3.6-3h-41.6C-689.9,86.1-691.4,87.4-691.7,89.2z"/>
		<path class="st2" d="M-701,89.1l-8.1,55.8c-0.9,6.1,3.8,11.6,10,11.6l56.3-0.3c0,0-3.5-0.9-4.9-8.2c-2.5-12.3-4.6-59-4.6-59
			c-0.3-1.7-1.8-3-3.6-3h-41.6C-699.3,86-700.8,87.3-701,89.1z"/>
		<path class="st0" d="M-659.5,93.7l-0.8-15.8c-0.5-6-5.4-10.6-11.4-10.7l-6.3-0.1c0,0-0.1,0-0.1,0c-6,0-11.1,4.7-11.6,10.7
			l-0.9,15.9c-0.1,0.9,0.6,1.8,1.6,1.9c0,0,0.1,0,0.1,0c0.9,0,1.6-0.7,1.7-1.6l0.9-15.9c0.4-4.2,3.9-7.5,8.2-7.5c0,0,0.1,0,0.1,0
			l6.3,0.1c4.3,0.1,7.7,3.3,8.1,7.5l0.8,15.8c0.1,0.9,0.8,1.6,1.7,1.6c0,0,0.1,0,0.1,0C-660.1,95.5-659.4,94.7-659.5,93.7z"/>
		<g>
			<path class="st3" d="M-662.5,125.1l-21.5,1.1c1,3.8,4.4,6,9.2,5.7c2.2-0.1,3.9-0.6,5.5-1.5c1.6-0.9,3.6-0.7,4.8,0.5l0,0
				c1.6,1.5,1.3,4.1-0.6,5.4c-2.6,1.7-5.8,2.6-9.7,2.8c-10.9,0.6-18.2-5.8-18.4-15c-0.2-9.2,6.8-16.3,16.4-16.7
				c9.3-0.5,16.6,5.3,16.9,15.2c0,0,0,0,0,0C-659.9,124-661,125.1-662.5,125.1z M-684.2,121l15.6-0.8c-0.7-3.9-3.8-6.2-7.9-6
				C-680.7,114.4-683.6,117-684.2,121z"/>
		</g>
		<path class="st4" d="M-647.6,91.1c0,0,5.1,46.4,4.9,51.2c-0.2,4.8-0.7,12.2-0.7,12.2s2.6-9,3.9-8.8c1.3,0.3,6.6,2.1,6.6,2.1
			s-6.7-4.9-7.9-9C-641.3,136.8-647.6,91.1-647.6,91.1z"/>
	</g>
</g>
<g>
	<g>
		<g>
			<path class="st2" d="M-476.3,53.4c0,6.1-3.6,9.4-7.9,9.4c-4.5,0-7.7-3.6-7.7-9c0-5.7,3.4-9.4,7.9-9.4
				C-479.3,44.4-476.3,48.1-476.3,53.4z M-489.5,53.7c0,3.8,2,7.2,5.4,7.2c3.5,0,5.5-3.4,5.5-7.4c0-3.5-1.8-7.2-5.4-7.2
				C-487.7,46.2-489.5,49.8-489.5,53.7z"/>
			<path class="st2" d="M-473.2,53.1c0-1.3,0-2.4-0.1-3.5h2l0.1,2.1h0.1c0.6-1.2,2-2.4,4-2.4c1.7,0,4.3,1.1,4.3,5.4v7.6h-2.2v-7.4
				c0-2.1-0.7-3.8-2.8-3.8c-1.5,0-2.6,1.1-3,2.4c-0.1,0.3-0.2,0.7-0.2,1.1v7.7h-2.2V53.1z"/>
			<path class="st2" d="M-458.8,43.7h2.2v18.8h-2.2V43.7z"/>
			<path class="st2" d="M-450,46.1c0,0.8-0.5,1.4-1.4,1.4c-0.8,0-1.3-0.6-1.3-1.4c0-0.8,0.6-1.5,1.4-1.5
				C-450.5,44.6-450,45.3-450,46.1z M-452.5,62.5V49.7h2.2v12.8H-452.5z"/>
			<path class="st2" d="M-446.2,53.1c0-1.3,0-2.4-0.1-3.5h2l0.1,2.1h0.1c0.6-1.2,2-2.4,4-2.4c1.7,0,4.3,1.1,4.3,5.4v7.6h-2.2v-7.4
				c0-2.1-0.7-3.8-2.8-3.8c-1.5,0-2.6,1.1-3,2.4c-0.1,0.3-0.2,0.7-0.2,1.1v7.7h-2.2V53.1z"/>
			<path class="st2" d="M-430.6,56.5c0.1,3.1,2,4.4,4.2,4.4c1.6,0,2.6-0.3,3.4-0.7l0.4,1.7c-0.8,0.4-2.1,0.8-4.1,0.8
				c-3.8,0-6-2.6-6-6.4s2.2-6.9,5.7-6.9c4,0,5.1,3.7,5.1,6c0,0.5-0.1,0.8-0.1,1.1H-430.6z M-424,54.8c0-1.5-0.6-3.8-3.1-3.8
				c-2.3,0-3.2,2.2-3.4,3.8H-424z"/>
			<path class="st0" d="M-419,59.7c1,0.6,2.4,1.2,3.9,1.2c2.2,0,3.6-1.2,3.6-3c0-1.7-0.9-2.6-3.2-3.5c-2.8-1-4.5-2.5-4.5-5
				c0-2.8,2.2-4.8,5.5-4.8c1.7,0,3,0.4,3.8,0.9l-0.6,1.9c-0.6-0.3-1.7-0.8-3.2-0.8c-2.3,0-3.2,1.5-3.2,2.7c0,1.7,1,2.5,3.4,3.4
				c2.9,1.2,4.3,2.6,4.3,5.2c0,2.7-1.9,5.1-6,5.1c-1.6,0-3.4-0.5-4.3-1.1L-419,59.7z"/>
			<path class="st0" d="M-405.9,43.7h2.2v8h0.1c0.4-0.7,0.9-1.2,1.6-1.6c0.7-0.4,1.4-0.7,2.3-0.7c1.6,0,4.3,1.1,4.3,5.5v7.6h-2.2
				v-7.3c0-2.1-0.7-3.8-2.8-3.8c-1.4,0-2.6,1.1-3,2.3c-0.1,0.3-0.2,0.7-0.2,1.1v7.7h-2.2V43.7z"/>
			<path class="st0" d="M-380.5,56c0,4.7-3.1,6.8-6.1,6.8c-3.3,0-5.9-2.5-5.9-6.6c0-4.3,2.7-6.8,6.1-6.8
				C-382.9,49.4-380.5,52.1-380.5,56z M-390.2,56.1c0,2.8,1.5,4.9,3.7,4.9c2.1,0,3.7-2.1,3.7-5c0-2.2-1-4.9-3.7-4.9
				C-389.1,51.1-390.2,53.7-390.2,56.1z"/>
			<path class="st0" d="M-377.3,53.9c0-1.6-0.1-3-0.1-4.2h2l0.1,2.2h0.1c0.9-1.6,2.4-2.5,4.3-2.5c3,0,5.2,2.6,5.2,6.5
				c0,4.6-2.7,6.9-5.6,6.9c-1.6,0-3-0.7-3.8-2h-0.1v7h-2.2V53.9z M-375.1,57.3c0,0.3,0.1,0.7,0.1,1c0.4,1.6,1.7,2.7,3.3,2.7
				c2.4,0,3.7-2,3.7-4.9c0-2.6-1.3-4.8-3.6-4.8c-1.5,0-2.9,1.1-3.4,2.9c-0.1,0.3-0.2,0.6-0.2,1V57.3z"/>
		</g>
	</g>
	<g>
		<g>
			<path class="st5" d="M-391.6-34.2c-3.5-5.5-12.5-6.6-23.5-3.9l5.7,10.5c-6.2,12.7-16.9,26.8-35.1,37.4l-12.5-23.2
				c-10,10.4-14.5,21.1-10.5,27.5c3.8,6,14.3,6.8,26.8,3l-3.2-6c6.2-0.8,27.9-3.6,42.9-23.8l1.6,3.1
				C-391.3-19-387.9-28.3-391.6-34.2z"/>
			<path class="st2" d="M-395-0.7c-5.7,5.7-12.6,11.3-20.6,16.4c-6.8,4.3-13.7,7.9-20.4,10.5l1.6,3c1.8,3.3,5.8,4.5,9.1,2.7l31-16.6
				c3.3-1.8,4.5-5.8,2.7-9.1L-395-0.7z"/>
			<path class="st0" d="M-390.4-45.3c-5.7-6.3-18.4-4.8-32.4,2.6l1.7,2.1c9.3-4.1,17.4-4.5,21.3-0.2c4.2,4.6,2.6,13.3-3.1,22.9
				c-3.4,5.8-8.4,11.8-14.6,17.5c-5.8,5.3-11.9,9.5-17.7,12.4c-10.5,5.3-19.8,6.2-24.1,1.5c-4.6-5-2.3-15.2,5-25.9l-1.9-2.4
				c-12.8,16-17.8,32.2-11,39.6c6.4,7.1,21.6,4.3,37.7-5.6c5.4-3.4,11-7.5,16.3-12.4c6.2-5.7,11.5-11.7,15.6-17.6
				C-387.7-25-384.3-38.6-390.4-45.3z"/>
			<path class="st2" d="M-415.2-38.1l-1.4-2.7l-2.3-4.2c-0.9-1.6-2.4-2.7-4.2-2.9l-14.7-1.9c-1.2-0.2-2.4,0.1-3.4,0.6l-11.6,6.2
				c-1,0.6-1.9,1.4-2.4,2.5l-6.5,13.3c-0.8,1.6-0.8,3.6,0.1,5.2l3,5.5l1.6,3.1l16.6,27.8c18.2-10.6,27.7-24,32.7-36.2L-415.2-38.1z"
				/>
			<path class="st6" d="M-441.3-41.7c0.8,1.5,0.2,3.3-1.2,4.1c-1.5,0.8-3.3,0.2-4.1-1.2c-0.8-1.5-0.2-3.3,1.2-4.1
				C-443.9-43.8-442.1-43.2-441.3-41.7z"/>
			<g>
				<g>
					<path class="st0" d="M-455.1-63.6c5.1,1.2,8.2,14.3,9.1,23.4c0,0.5,0.5,0.7,1,0.5l1.1-0.5c0.6-0.3,1-0.9,0.9-1.6
						c-0.8-7-3.6-22.9-11.4-24.8c-3-0.7-5.5,0.4-6.9,3c-2.9,5.3-0.9,16.9,5.9,23.3l2.2-2.3c-5.5-5.2-7.6-15.2-5.3-19.5
						C-457.8-63.6-456.7-64-455.1-63.6z"/>
				</g>
			</g>
		</g>
		<path class="st0" d="M-385.4-44.4c0,0,5.3,23.7-25.1,50.5c0,0,10.2-6.3,18.5-15.2C-381.4-20.5-376.8-33.7-385.4-44.4z"/>
		<path class="st0" d="M-470.9,25.7c0,0-7.2-16.4,14.6-40.1c0,0-7.6,6-13.4,13.6C-477.1,9-479.2,19.2-470.9,25.7z"/>
	</g>
</g>
<g>
	<path class="st2" d="M70.2,27.4h79.6c6.7,0,11.4,6.6,9.2,13l-7.2,39.2c-1.4,3.9-5.1,6.6-9.3,6.6H73.8c-5.3,0-9.4-4.6-8.8-9.8
		L70.2,27.4z"/>
	<path class="st0" d="M148,91.1c-1.9,6.2-7.6,10.5-14.1,10.5l-65.6,0c-6,0-11.8-2.6-15.8-7c-4-4.5-6-10.5-5.4-16.5l5.3-52.9
		c0.6-5.6-3.3-10.7-8.8-11.7l-16.5-3c-2.9-0.5-4.7-3.3-4.2-6.1l0,0c0.5-2.9,3.3-4.7,6.1-4.2l16.5,3c10.8,2,18.5,12.2,17.4,23.1
		l-5.2,52.5c-0.3,3,0.5,6,2.4,8.3c2.1,2.6,5.1,4,8.4,4H148L148,91.1z"/>
	
		<ellipse transform="matrix(0.6769 -0.7361 0.7361 0.6769 -63.5525 86.7586)" class="st0" cx="67.1" cy="115.8" rx="10.7" ry="10.7"/>
	
		<ellipse transform="matrix(0.7071 -0.7071 0.7071 0.7071 -47.5427 116.7696)" class="st0" cx="117.2" cy="115.8" rx="10.7" ry="10.7"/>
	<path class="st2" d="M93.4,25.9"/>
	<path class="st6" d="M91.4,35.2l-1.6,15.4c-0.9,8.9,5.1,16,14,16.4l9.2,0.4c0.1,0,0.1,0,0.2,0c8.9,0.3,17.6-6.3,20-15.2l4.1-15.5
		c0.4-1.4-0.4-2.7-1.8-2.8c-0.1,0-0.1,0-0.2,0c-1.3,0-2.6,0.9-2.9,2.2l-4.1,15.5c-1.7,6.2-7.8,10.9-14,10.7c-0.1,0-0.1,0-0.2,0
		l-9.2-0.4c-6.3-0.3-10.5-5.3-9.9-11.6L96.5,35c0.1-1.3-0.8-2.4-2.1-2.4c-0.1,0-0.1,0-0.2,0C92.8,32.6,91.6,33.8,91.4,35.2z"/>
	<path class="st0" d="M38.3,58.5l-10.9,0.1l-0.1-10.9c0-4,3.2-7.3,7.2-7.3l10.9-0.1l0.1,10.9C45.6,55.2,42.3,58.4,38.3,58.5z"/>
	<path class="st0" d="M26,86.6l-11.6,0.1L14.3,75c0-4.3,3.4-7.8,7.7-7.8l11.6-0.1l0.1,11.6C33.7,83.1,30.3,86.6,26,86.6z"/>
	<path class="st0" d="M8.7,68.8l-7.8,0.1l-0.1-7.8c0-2.9,2.3-5.2,5.1-5.2l7.8-0.1l0.1,7.8C13.9,66.5,11.6,68.8,8.7,68.8z"/>
</g>
<g>
	<path class="st2" d="M390.3,134.8c26-14.8,36.3-33.9,40.4-47.2l0.7-13.8c0.2-3.1-2.3-5.7-5.4-5.7h-63.9c-3.2,0-5.7,2.8-5.4,5.9
		l0.8,9.7c1.4-2,2.8-3.6,4-4.3c0,0-2,4.9-3.4,12.3l3.9,47.1c0.1,1.7,1.5,2.9,3.2,2.9h59.8c1.7,0,3.1-1.3,3.2-3l1.5-31
		C415.4,124,390.3,134.8,390.3,134.8z"/>
	<g>
		<text transform="matrix(0.9567 0 0 1 327.5617 179.895)"><tspan x="0" y="0" class="st2" style="font-family:'Baloo2-SemiBold'; font-size:26.4348px;">Online</tspan><tspan x="75.4" y="0" class="st0" style="font-family:'Baloo2-SemiBold'; font-size:26.4348px;">Shop</tspan></text>
		
			<text transform="matrix(0.9567 0 0 1 363.0008 191.0702)" style="fill:#444444; font-family:'Baloo2-Medium'; font-size:10.5271px;">Slogan Here</text>
	</g>
	<path class="st0" d="M411.2,78.4L410.3,61c-0.5-6.6-6-11.7-12.6-11.8l-6.9-0.1c-0.1,0-0.1,0-0.2,0c-6.6,0-12.2,5.1-12.8,11.7
		l-1,17.5c-0.1,1,0.7,2,1.7,2c0.1,0,0.1,0,0.2,0c1,0,1.8-0.7,1.9-1.7l1-17.5c0.4-4.7,4.3-8.3,9-8.3c0,0,0.1,0,0.1,0l6.9,0.1
		c4.7,0.1,8.5,3.6,8.9,8.3l0.9,17.4c0.1,1,0.9,1.7,1.9,1.7c0.1,0,0.1,0,0.2,0C410.5,80.3,411.3,79.4,411.2,78.4z"/>
	<g>
		<path class="st0" d="M418.5,115c-8.8,9.1-18.7,15.8-28.2,19.8c6.1-1.6,12.4-3.9,18.6-7c28.5-14.2,44.9-39.1,36.7-55.6
			c-1.1-2.1-2.5-4-4.2-5.6C442,80.8,433.7,99.3,418.5,115z"/>
		<path class="st0" d="M342.4,123.8c2.8,5.6,8,9.4,14.9,11.6c-1-0.7-2-1.5-2.9-2.3c-11.1-10.9-7.6-33.2,7.2-53.6
			C344.4,93.4,336.1,111.1,342.4,123.8z"/>
	</g>
	<g>
		<path class="st3" d="M398.1,122.4c-1.2,0-2.2-0.7-2.6-1.7l-5.7-13.6l-12.8-2.1c-1.3-0.2-2.2-1.2-2.4-2.5c-0.1-1.3,0.6-2.5,1.8-2.9
			l27.6-10.2c0.3-0.1,0.7-0.2,1-0.2c0.9,0,1.7,0.4,2.2,1.1c0.5,0.7,0.7,1.6,0.5,2.4l-7,27.6C400.5,121.6,399.4,122.4,398.1,122.4
			L398.1,122.4z"/>
	</g>
	<path class="st0" d="M360,137.9c0,0-24.9-3.3-25.3-23.6C334.7,114.3,324.1,140.6,360,137.9z"/>
</g>
</svg>
