<?xml version="1.0" encoding="UTF-8"?><svg id="OBJECTS" xmlns="http://www.w3.org/2000/svg" viewBox="0 0 229.61 100.51"><defs><style>.cls-1{fill:#dfaf35;}.cls-2{fill:#f4f4f4;}.cls-3{fill:#76a046;}</style></defs><path class="cls-1" d="M57.05,85.72c25.98-14.82,36.31-33.91,40.42-47.19l.66-13.78c.18-3.1-2.29-5.71-5.39-5.71H28.83c-3.19,0-5.69,2.76-5.38,5.94l.81,9.68c1.44-2.02,2.85-3.61,4.03-4.3,0,0-1.97,4.9-3.36,12.32l3.93,47.08c.14,1.66,1.52,2.93,3.19,2.93h59.8c1.71,0,3.11-1.34,3.19-3.04l1.48-31.04c-14.36,16.26-39.46,27.12-39.46,27.12Z"/><path class="cls-1" d="M144.37,34.18c0,9.6-5.58,14.69-12.39,14.69s-12-5.71-12-14.15c0-8.86,5.27-14.65,12.39-14.65s12,5.84,12,14.11Zm-20.71,.46c0,5.96,3.09,11.3,8.51,11.3s8.55-5.26,8.55-11.59c0-5.55-2.77-11.34-8.51-11.34s-8.55,5.51-8.55,11.63Z"/><path class="cls-1" d="M149.29,33.81c0-2.07-.04-3.77-.16-5.42h3.09l.2,3.31h.08c.95-1.9,3.17-3.77,6.34-3.77,2.65,0,6.77,1.65,6.77,8.53v11.96h-3.48v-11.55c0-3.23-1.15-5.92-4.43-5.92-2.3,0-4.08,1.7-4.67,3.73-.16,.46-.24,1.08-.24,1.7v12.04h-3.48v-14.61Z"/><path class="cls-1" d="M171.83,19.04h3.48v29.39h-3.48V19.04Z"/><path class="cls-1" d="M185.61,22.76c.04,1.24-.83,2.23-2.22,2.23-1.23,0-2.1-.99-2.1-2.23s.91-2.28,2.18-2.28,2.14,.99,2.14,2.28Zm-3.88,25.66V28.39h3.48v20.03h-3.48Z"/><path class="cls-1" d="M191.55,33.81c0-2.07-.04-3.77-.16-5.42h3.09l.2,3.31h.08c.95-1.9,3.17-3.77,6.34-3.77,2.65,0,6.77,1.65,6.77,8.53v11.96h-3.49v-11.55c0-3.23-1.15-5.92-4.43-5.92-2.3,0-4.08,1.7-4.67,3.73-.16,.46-.24,1.08-.24,1.7v12.04h-3.48v-14.61Z"/><path class="cls-1" d="M216.03,39.07c.08,4.92,3.09,6.95,6.57,6.95,2.49,0,4-.46,5.31-1.03l.59,2.61c-1.23,.58-3.33,1.24-6.37,1.24-5.9,0-9.42-4.06-9.42-10.1s3.4-10.8,8.99-10.8c6.26,0,7.92,5.75,7.92,9.44,0,.74-.08,1.32-.12,1.7h-13.46Zm10.22-2.61c.04-2.32-.91-5.92-4.83-5.92-3.53,0-5.07,3.39-5.35,5.92h10.18Z"/><path class="cls-3" d="M124.34,80.02c1.54,.99,3.8,1.82,6.18,1.82,3.52,0,5.58-1.95,5.58-4.76,0-2.61-1.43-4.1-5.03-5.55-4.36-1.61-7.05-3.97-7.05-7.91,0-4.34,3.44-7.57,8.63-7.57,2.73,0,4.71,.66,5.9,1.37l-.95,2.94c-.87-.5-2.65-1.32-5.07-1.32-3.64,0-5.03,2.28-5.03,4.18,0,2.61,1.62,3.89,5.31,5.38,4.51,1.82,6.81,4.1,6.81,8.19,0,4.31-3.05,8.03-9.35,8.03-2.57,0-5.38-.79-6.81-1.78l.87-3.02Z"/><path class="cls-3" d="M144.77,55.02h3.49v12.5h.08c.56-1.03,1.43-1.95,2.5-2.57,1.03-.62,2.26-1.03,3.56-1.03,2.57,0,6.69,1.65,6.69,8.57v11.92h-3.48v-11.51c0-3.23-1.15-5.96-4.44-5.96-2.26,0-4.04,1.66-4.67,3.64-.2,.5-.24,1.03-.24,1.74v12.09h-3.49v-29.39Z"/><path class="cls-3" d="M184.65,74.23c0,7.41-4.91,10.64-9.54,10.64-5.19,0-9.19-3.97-9.19-10.3,0-6.7,4.2-10.64,9.5-10.64s9.23,4.18,9.23,10.3Zm-15.2,.21c0,4.39,2.41,7.7,5.82,7.7s5.82-3.27,5.82-7.78c0-3.4-1.62-7.7-5.74-7.7s-5.9,3.97-5.9,7.78Z"/><path class="cls-3" d="M189.61,70.91c0-2.57-.08-4.64-.16-6.54h3.13l.16,3.44h.08c1.43-2.44,3.68-3.89,6.81-3.89,4.63,0,8.12,4.1,8.12,10.18,0,7.2-4.2,10.76-8.71,10.76-2.53,0-4.75-1.16-5.9-3.14h-.08v10.88h-3.45v-21.69Zm3.45,5.34c0,.54,.08,1.04,.16,1.49,.63,2.52,2.73,4.26,5.23,4.26,3.68,0,5.82-3.15,5.82-7.74,0-4.01-2.02-7.45-5.7-7.45-2.38,0-4.59,1.78-5.27,4.51-.12,.46-.24,.99-.24,1.49v3.43Z"/><path class="cls-3" d="M77.93,29.27l-.91-17.39c-.53-6.64-5.95-11.7-12.61-11.79L57.52,0c-.05,0-.11,0-.16,0-6.62,0-12.21,5.12-12.76,11.73l-.97,17.52c-.09,1.04,.68,1.95,1.73,2.04,.05,0,.11,0,.16,0,.97,0,1.8-.75,1.88-1.73l.97-17.52c.39-4.65,4.29-8.27,8.98-8.27,.04,0,.09,0,.13,0l6.9,.09c4.69,.06,8.51,3.63,8.89,8.31l.91,17.39c.08,.99,.9,1.74,1.87,1.74,.05,0,.11,0,.16,0,1.04-.08,1.82-.99,1.73-2.03Z"/><g><path class="cls-3" d="M85.22,65.91c-8.83,9.06-18.68,15.79-28.17,19.81,6.1-1.6,12.37-3.94,18.59-7.05,28.48-14.25,44.9-39.14,36.67-55.59-1.05-2.1-2.46-3.97-4.17-5.59,.59,14.23-7.65,32.76-22.91,48.42Z"/><path class="cls-3" d="M9.16,74.68c2.78,5.57,8.04,9.45,14.87,11.6-1.04-.68-2.01-1.45-2.91-2.33-11.14-10.85-7.61-33.18,7.17-53.6C11.12,44.32,2.82,62,9.16,74.68Z"/></g><path class="cls-2" d="M64.85,73.35c-1.16,0-2.16-.66-2.61-1.73l-5.73-13.56-12.76-2.09c-1.29-.21-2.24-1.23-2.37-2.53-.13-1.3,.61-2.48,1.84-2.94l27.65-10.24c.32-.12,.65-.18,.99-.18,.87,0,1.7,.41,2.24,1.1,.54,.69,.73,1.58,.51,2.44l-7,27.58c-.33,1.28-1.43,2.14-2.76,2.14h0Z"/><path class="cls-3" d="M26.75,88.8S1.81,85.47,1.47,65.19c0,0-10.64,26.27,25.27,23.61Z"/></svg>